HIERARCHY
ROOT hip
{
  OFFSET 0 0 0
  CHANNELS 6 Xposition Yposition Zposition Zrotation Yrotation Xrotation
  JOINT abdomen
  {
    OFFSET 0 20.6881 -0.73152
    CHANNELS 3 Zrotation Xrotation Yrotation
    JOINT chest
    {
      OFFSET 0 11.7043 -0.48768
      CHANNELS 3 Zrotation Xrotation Yrotation
      JOINT neck
      {
        OFFSET 0 22.1894 -2.19456
        CHANNELS 3 Zrotation Xrotation Yrotation
        JOINT head
        {
          OFFSET -0.24384 7.07133 1.2192
          CHANNELS 3 Zrotation Xrotation Yrotation
          JOINT leftEye
          {
            OFFSET 4.14528 8.04674 8.04672
            CHANNELS 3 Zrotation Xrotation Yrotation
            End Site
            {
              OFFSET 1 0 0
            }
          }
          JOINT rightEye
          {
            OFFSET -3.6576 8.04674 8.04672
            CHANNELS 3 Zrotation Xrotation Yrotation
            End Site
            {
              OFFSET 1 0 0
            }
          }
        }
      }
      JOINT rCollar
      {
        OFFSET -2.68224 19.2634 -4.8768
        CHANNELS 3 Zrotation Xrotation Yrotation
        JOINT rShldr
        {
          OFFSET -8.77824 -1.95073 1.46304
          CHANNELS 3 Zrotation Xrotation Yrotation
          JOINT rForeArm
          {
            OFFSET -28.1742 -1.7115 0.48768
            CHANNELS 3 Zrotation Xrotation Yrotation
            JOINT rHand
            {
              OFFSET -22.5879 0.773209 7.07136
              CHANNELS 3 Zrotation Xrotation Yrotation
              JOINT rThumb1
              {
                OFFSET -1.2192 -0.487915 3.41376
                CHANNELS 3 Zrotation Xrotation Yrotation
                JOINT rThumb2
                {
                  OFFSET -3.37035 -0.52449 3.41376
                  CHANNELS 3 Zrotation Xrotation Yrotation
                  End Site
                  {
                    OFFSET -1.78271 -1.18214 1.43049
                  }
                }
              }
              JOINT rIndex1
              {
                OFFSET -7.75947 0.938293 5.60832
                CHANNELS 3 Zrotation Xrotation Yrotation
                JOINT rIndex2
                {
                  OFFSET -2.54057 -0.884171 1.56538
                  CHANNELS 3 Zrotation Xrotation Yrotation
                  End Site
                  {
                    OFFSET -1.62519 -0.234802 1.16502
                  }
                }
              }
              JOINT rMid1
              {
                OFFSET -8.24714 1.18213 3.41376
                CHANNELS 3 Zrotation Xrotation Yrotation
                JOINT rMid2
                {
                  OFFSET -3.10165 -0.590103 1.0647
                  CHANNELS 3 Zrotation Xrotation Yrotation
                  End Site
                  {
                    OFFSET -2.48547 -0.328903 0.83742
                  }
                }
              }
              JOINT rRing1
              {
                OFFSET -8.82822 0.546677 1.51678
                CHANNELS 3 Zrotation Xrotation Yrotation
                JOINT rRing2
                {
                  OFFSET -2.60934 -0.819778 -0.0198488
                  CHANNELS 3 Zrotation Xrotation Yrotation
                  End Site
                  {
                    OFFSET -2.33842 -0.294052 0.168128
                  }
                }
              }
              JOINT rPinky1
              {
                OFFSET -8.27202 -0.0477905 -0.4584
                CHANNELS 3 Zrotation Xrotation Yrotation
                JOINT rPinky2
                {
                  OFFSET -1.82734 -0.647385 -0.700984
                  CHANNELS 3 Zrotation Xrotation Yrotation
                  End Site
                  {
                    OFFSET -1.69225 -0.51767 -0.607171
                  }
                }
              }
            }
          }
        }
      }
      JOINT lCollar
      {
        OFFSET 2.68224 19.2634 -4.8768
        CHANNELS 3 Zrotation Xrotation Yrotation
        JOINT lShldr
        {
          OFFSET 8.77824 -1.95073 1.46304
          CHANNELS 3 Zrotation Xrotation Yrotation
          JOINT lForeArm
          {
            OFFSET 28.1742 -1.7115 0.48768
            CHANNELS 3 Zrotation Xrotation Yrotation
            JOINT lHand
            {
              OFFSET 22.5879 0.773209 7.07136
              CHANNELS 3 Zrotation Xrotation Yrotation
              JOINT lThumb1
              {
                OFFSET 1.2192 -0.487915 3.41376
                CHANNELS 3 Zrotation Xrotation Yrotation
                JOINT lThumb2
                {
                  OFFSET 3.37035 -0.52449 3.41376
                  CHANNELS 3 Zrotation Xrotation Yrotation
                  End Site
                  {
                    OFFSET 1.78271 -1.18214 1.43049
                  }
                }
              }
              JOINT lIndex1
              {
                OFFSET 7.75947 0.938293 5.60832
                CHANNELS 3 Zrotation Xrotation Yrotation
                JOINT lIndex2
                {
                  OFFSET 2.54057 -0.884171 1.56538
                  CHANNELS 3 Zrotation Xrotation Yrotation
                  End Site
                  {
                    OFFSET 1.62519 -0.234802 1.16502
                  }
                }
              }
              JOINT lMid1
              {
                OFFSET 8.24714 1.18213 3.41376
                CHANNELS 3 Zrotation Xrotation Yrotation
                JOINT lMid2
                {
                  OFFSET 3.10165 -0.590103 1.0647
                  CHANNELS 3 Zrotation Xrotation Yrotation
                  End Site
                  {
                    OFFSET 2.48547 -0.328903 0.83742
                  }
                }
              }
              JOINT lRing1
              {
                OFFSET 8.82822 0.546677 1.51678
                CHANNELS 3 Zrotation Xrotation Yrotation
                JOINT lRing2
                {
                  OFFSET 2.60934 -0.819778 -0.0198488
                  CHANNELS 3 Zrotation Xrotation Yrotation
                  End Site
                  {
                    OFFSET 2.33842 -0.294052 0.168128
                  }
                }
              }
              JOINT lPinky1
              {
                OFFSET 8.27202 -0.0477905 -0.4584
                CHANNELS 3 Zrotation Xrotation Yrotation
                JOINT lPinky2
                {
                  OFFSET 1.82734 -0.647385 -0.700984
                  CHANNELS 3 Zrotation Xrotation Yrotation
                  End Site
                  {
                    OFFSET 1.69225 -0.51767 -0.607171
                  }
                }
              }
            }
          }
        }
      }
    }
  }
  JOINT rButtock
  {
    OFFSET -8.77824 4.35084 1.2192
    CHANNELS 3 Zrotation Xrotation Yrotation
    JOINT rThigh
    {
      OFFSET 0 -1.70687 -2.19456
      CHANNELS 3 Zrotation Xrotation Yrotation
      JOINT rShin
      {
        OFFSET 0 -36.8199 0.73152
        CHANNELS 3 Zrotation Xrotation Yrotation
        JOINT rFoot
        {
          OFFSET 0.73152 -45.1104 -5.12064
          CHANNELS 3 Zrotation Xrotation Yrotation
          End Site
          {
            OFFSET -1.1221 -3.69964 12.103
          }
        }
      }
    }
  }
  JOINT lButtock
  {
    OFFSET 8.77824 4.35084 1.2192
    CHANNELS 3 Zrotation Xrotation Yrotation
    JOINT lThigh
    {
      OFFSET 0 -1.70687 -2.19456
      CHANNELS 3 Zrotation Xrotation Yrotation
      JOINT lShin
      {
        OFFSET 0 -36.8199 0.73152
        CHANNELS 3 Zrotation Xrotation Yrotation
        JOINT lFoot
        {
          OFFSET -0.73152 -45.1104 -5.12064
          CHANNELS 3 Zrotation Xrotation Yrotation
          End Site
          {
            OFFSET 1.1221 -3.69964 12.103
          }
        }
      }
    }
  }
}
MOTION
Frames:	4
Frame Time:	0.00833333
-20.2211 67.4304 -111.3191 -178.741996 57.611582 -174.61115 -6.331816 18.008387 21.937206 -0.305387 -13.526601 -19.122372 9.54704 28.28302 113.262579 -37.865654 23.907334 -106.36164 -17.086182 -1.825484 12.107843 15.288159 -5.206737 -37.431043 8.304202 -43.957955 -2.634353 -112.99615 -19.006329 -161.415907 -36.694258 55.134474 -118.502471 164.221122 -41.262021 135.12566 -3.607061 -7.709764 -0.801794 15.25109 -30.871165 -20.211757 -88.507501 49.665754 76.49354 -171.928792 -5.67946 126.060297 -15.352983 60.688905 4.990251 -165.479045 35.200257 127.503958 -86.175402 -84.271358 -99.938297 -15.451187 35.641965 -3.088351 -24.967213 -38.161242 -32.908941 -14.373422 -8.619313 -13.529119 152.236872 18.688118 -156.926183 54.05259 17.265687 5.306152 -10.476005 -14.741969 111.306146 167.397001 4.366282 -142.606515 -68.800523 -34.974805 -12.150831 13.455955 -57.479116 36.163784 25.417038 46.379629 -35.071048 13.393835 15.435625 0.266256 156.868024 33.111019 -143.39439 15.686128 13.080905 -9.855788 14.145683 -15.256561 5.229559 89.943783 -79.969245 135.14194 -7.971362 -17.259974 5.525055 161.228616 68.139746 -174.870471 164.20133 72.941679 16.176013 173.22709 16.372748 124.129732 98.354489 -37.747635 27.694922 -62.451722 -16.349592 -153.561017 -177.898438 68.412335 -4.824289 -164.334423 5.969353 -74.289874 -84.685179 21.627791 167.822809 23.481823 -81.082958 -65.971093
-20.0239 67.5116 -111.0946 -179.101619 55.892659 -175.111915 -5.403908 14.141958 178.693175 -4.451466 8.703521 -176.138074 -1.540423 16.342225 10.734414 -4.956696 -30.914446 -14.597917 -14.062526 -1.540102 12.438466 10.944983 -4.789526 -47.164739 -148.887607 20.80882 151.435556 141.346828 -13.202228 164.619026 8.018456 34.566009 114.124296 -11.128318 22.983897 -3.302065 -170.951685 1.965407 90.251959 71.01567 -61.751595 52.95292 9.769522 -11.642991 -11.698138 -116.132418 28.01593 78.31041 -151.626607 -63.30335 176.926527 -46.232813 71.238347 63.156084 0.678164 -59.699088 -6.299148 -44.215952 -57.10797 -45.774484 -93.588994 -44.636096 -98.846563 -48.090798 -48.997008 -32.012981 99.161084 67.307366 -101.557941 114.443245 34.504634 -70.549232 -16.035445 -36.95868 104.978307 166.601758 7.08535 -141.050898 -17.637305 4.988108 -5.904265 -11.675339 -44.615118 28.245466 139.872604 -42.666882 -129.375746 171.46654 -50.708732 -115.979225 3.186053 -23.84133 11.743018 53.553217 71.09038 -58.41896 16.152674 -36.746385 10.72179 130.577075 -20.747748 169.084198 -11.023763 -17.576996 2.526079 64.128182 -59.224373 28.424966 2.377149 1.115445 -5.698832 -10.946869 -60.405784 -160.181034 -100.774081 -69.993067 24.248935 -93.725742 -44.044611 8.526543 159.372329 67.066795 9.724711 -157.491537 3.026214 77.321847 85.57907 14.080177 179.653038 26.59625 75.826917 66.57348
-19.8963 67.65820000000001 -110.81160000000001 -179.394742 54.194267 -175.562444 -6.140257 19.415926 23.461418 -0.637595 -15.069824 -21.3189 -12.644863 28.974816 -88.6206 44.44665 10.356143 81.211205 -10.730713 -1.084481 11.508625 6.01135 -3.127106 -54.935518 -2.357907 7.265717 4.894179 -115.856427 -3.121644 153.342441 171.35424 -41.263453 -73.158719 -13.515056 28.447573 -2.113705 -149.295559 20.75564 84.192334 -171.616425 -24.075182 82.513678 27.709084 -52.633841 -15.872471 -114.604479 19.981373 89.536112 -0.987644 -7.832937 -18.175721 -143.172644 16.09626 109.43152 -149.498481 -29.654159 177.010147 -123.860831 54.430544 122.837499 -148.71664 55.496876 -151.893066 10.08546 61.156979 35.161705 159.7641 -43.728373 -169.717699 56.508855 -22.9473 69.497849 174.823766 -7.608441 103.52065 12.366652 -7.148784 3.884975 -33.58421 -7.448101 -5.254068 17.011265 8.91436 9.093988 1.501512 30.861342 -13.985382 172.235873 -18.449297 -108.908054 176.301734 -46.673491 -153.761796 70.762088 71.451802 -50.061746 13.219479 -34.17797 5.756986 117.295092 -48.55161 154.625667 128.562225 28.794511 154.631863 105.013918 5.985721 137.169549 164.805985 74.992687 21.31023 171.849296 16.14418 16.471318 127.317915 74.412341 11.076253 -94.448425 3.055183 -167.057549 -3.778716 9.039422 0.126083 45.007896 -64.422432 -41.918033 -91.176309 -1.525783 -42.035881 -0.520433 33.72908 133.549142
-19.8307 67.85759999999999 -110.4857 -179.640213 52.488139 -175.975266 -3.830579 15.695568 -155.783079 1.046996 10.986462 156.86539 4.912262 35.348034 153.70448 -20.793324 47.229135 -152.712153 -7.463676 -0.620801 9.49612 1.306462 -0.749737 -59.698826 5.550545 -40.998235 -4.487824 -127.329095 46.802507 -170.993745 -18.973577 -68.594796 93.22122 -5.800949 5.95879 -5.160031 -174.48195 -5.771008 93.054922 -17.200073 -30.741703 7.638838 10.145623 -1.467522 -8.089458 -167.806921 -4.744541 99.930855 -147.108035 -70.398536 -176.329406 3.309108 58.040429 19.701097 -137.74601 21.570672 160.530024 -145.360299 -9.938069 158.707346 -145.680715 49.440794 -154.170872 14.513058 39.691239 26.051647 -1.332595 -12.474492 2.53497 -62.561562 27.286951 -32.745281 -173.791201 12.811502 -69.958575 167.220129 8.055066 -139.309833 168.599958 -25.297546 -79.271501 45.824033 -22.199652 -13.4406 127.277386 -10.551121 -122.560961 155.628287 3.715408 -118.889416 7.841116 -9.896354 6.333403 37.269554 69.790162 -44.138384 12.596333 -0.146328 -8.780437 -33.636827 30.956124 6.082565 -13.614437 -20.147036 -3.89615 40.884011 -16.425056 -3.187459 57.400291 12.361119 34.068516 -93.881082 -24.949497 -4.946131 96.298813 64.431362 -149.120492 13.530959 -10.768748 30.968358 164.504986 65.590236 7.89798 -159.246072 2.523369 106.158495 91.613669 -11.744653 146.943219 77.838113 -26.775794 157.246064
